<svg xmlns="http://www.w3.org/2000/svg" width="12" height="24" viewBox="0 0 12 24">
    <g fill="none" fill-rule="evenodd">
        <g fill-rule="nonzero">
            <g>
                <g>
                    <g>
                        <path fill="#B8BAC4" d="M5.949 22.802c-.561.339-1.287.385-1.914.038l-1.644-.91C.702 20.998.097 18.87 1.044 17.188l1.597-2.839 2.487 7.427c.15.452.45.805.82 1.027zM11.373 8.023l-2.118 6.325-3.306-5.873L10.577.249c.23-.409.85-.28.898.185l.357 3.355c.154 1.428-.004 2.872-.46 4.234z" transform="translate(-1258 -608) translate(40 600) translate(1200) translate(18 8)"/>
                        <path fill="#000" d="M9.255 14.348L6.77 21.775c-.151.45-.45.802-.82 1.026-.371-.222-.673-.575-.821-1.026l-2.487-7.427 3.307-5.873 3.306 5.873z" transform="translate(-1258 -608) translate(40 600) translate(1200) translate(18 8)"/>
                        <path fill="#B8BAC4" d="M5.949 8.475L2.64 14.348.523 8.023C.067 6.66-.091 5.217.063 3.789L.42.434c.05-.466.668-.595.897-.185L5.95 8.475zM9.505 21.93l-1.643.91c-.63.347-1.353.3-1.913-.039.371-.224.67-.576.82-1.026l2.485-7.427 1.597 2.839c.947 1.682.342 3.81-1.346 4.743z" transform="translate(-1258 -608) translate(40 600) translate(1200) translate(18 8)"/>
                    </g>
                </g>
            </g>
        </g>
    </g>
</svg>
