<?xml version="1.0" standalone="no"?>
<!DOCTYPE svg PUBLIC "-//W3C//DTD SVG 20010904//EN"
 "http://www.w3.org/TR/2001/REC-SVG-20010904/DTD/svg10.dtd">
<svg version="1.0" xmlns="http://www.w3.org/2000/svg"
 width="1024.000000pt" height="1024.000000pt" viewBox="0 0 1024.000000 1024.000000"
 preserveAspectRatio="xMidYMid meet">
<metadata>
Created by potrace 1.14, written by Peter Selinger 2001-2017
</metadata>
<g transform="translate(0.000000,1024.000000) scale(0.100000,-0.100000)"
fill="#000000" stroke="none">
<path d="M8597 9030 l-628 -629 -32 28 c-18 15 -43 37 -57 49 -14 11 -36 31
-50 42 -53 47 -250 191 -355 260 -60 40 -122 81 -137 91 -15 11 -29 19 -32 19
-2 0 -40 21 -83 46 -111 66 -377 194 -513 247 -421 164 -835 254 -1305 284
-201 12 -565 7 -740 -11 -96 -10 -163 -18 -185 -21 -61 -7 -281 -47 -345 -61
-38 -9 -77 -17 -85 -19 -86 -18 -170 -43 -359 -105 -716 -238 -1395 -710
-1926 -1340 -44 -52 -82 -97 -85 -100 -41 -40 -252 -341 -336 -480 -133 -221
-296 -570 -367 -790 -46 -142 -100 -332 -111 -390 -2 -14 -10 -47 -16 -75 -6
-27 -14 -61 -16 -75 -2 -14 -9 -47 -14 -75 -5 -27 -12 -68 -15 -90 -3 -23 -7
-50 -9 -60 -2 -11 -7 -51 -11 -90 -4 -38 -9 -77 -10 -86 -26 -134 -26 -738 0
-959 2 -14 6 -54 10 -90 4 -36 9 -72 10 -80 1 -8 6 -35 10 -60 3 -25 9 -58 11
-75 23 -145 88 -406 145 -584 165 -507 450 -1015 806 -1436 l59 -70 -127 -125
c-588 -577 -1109 -1094 -1109 -1100 0 -4 97 -104 215 -222 l215 -214 488 483
c268 266 546 543 619 615 l132 131 83 -70 c316 -267 736 -522 1103 -670 61
-24 119 -48 130 -53 44 -20 278 -93 403 -126 129 -34 148 -39 202 -49 14 -2
50 -9 80 -15 30 -6 71 -13 90 -16 19 -3 46 -7 60 -10 14 -2 63 -9 110 -14 47
-6 99 -13 115 -15 140 -20 623 -27 817 -12 897 66 1680 371 2363 921 55 44
105 85 111 91 7 5 47 42 90 80 476 426 857 939 1098 1477 96 215 151 369 221
618 25 91 78 340 91 430 4 30 8 57 9 60 1 3 5 37 9 75 5 39 9 77 11 86 4 18
15 155 20 249 5 85 6 424 1 523 -10 188 -36 409 -70 583 -2 12 -7 37 -10 55
-18 109 -125 497 -156 564 -5 11 -23 56 -39 100 -112 307 -312 671 -536 975
-55 75 -193 248 -226 284 -20 22 -25 34 -19 45 5 9 286 292 623 629 l615 613
-107 107 c-58 59 -155 158 -216 219 l-110 112 -628 -629z m-3242 -174 c66 -3
131 -8 145 -10 14 -3 52 -7 85 -11 52 -5 269 -39 322 -50 188 -39 480 -129
618 -190 17 -7 64 -27 105 -45 83 -36 264 -130 322 -166 21 -13 40 -24 43 -24
6 0 117 -72 125 -81 3 -3 12 -8 21 -12 16 -5 294 -214 364 -271 l29 -25 -2638
-2638 -2638 -2638 -30 35 c-71 84 -190 243 -258 345 -40 61 -81 122 -91 137
-11 15 -19 29 -19 32 0 3 -14 29 -31 58 -165 279 -347 767 -394 1058 -3 19
-10 58 -15 85 -9 50 -13 74 -25 170 -3 28 -8 64 -10 80 -19 146 -24 476 -11
703 4 74 9 139 11 145 2 7 6 35 9 62 15 133 50 326 86 465 73 288 205 612 351
865 51 89 168 275 179 285 3 3 23 30 44 60 131 185 455 538 625 680 30 25 70
59 90 75 20 17 42 35 49 40 7 6 18 15 25 21 59 52 308 219 436 294 335 194
812 367 1151 416 19 3 60 9 90 14 48 8 97 14 205 26 17 2 86 6 155 10 69 4
126 7 127 8 4 3 236 -3 348 -8z m2703 -1431 c102 -127 124 -158 210 -288 179
-273 297 -511 403 -816 53 -153 128 -457 144 -588 4 -26 8 -55 10 -63 2 -8 7
-46 11 -85 3 -38 8 -77 9 -86 9 -45 18 -262 18 -397 -2 -348 -42 -662 -124
-972 -35 -130 -107 -350 -120 -365 -5 -5 -9 -15 -9 -23 0 -29 -128 -299 -218
-457 -81 -144 -285 -437 -369 -530 -10 -11 -45 -52 -78 -90 -75 -88 -324 -337
-389 -390 -28 -22 -61 -51 -75 -64 -76 -70 -473 -351 -497 -351 -3 0 -18 -9
-33 -19 -44 -32 -318 -166 -431 -212 -120 -48 -253 -95 -325 -115 -82 -22
-288 -73 -320 -78 -16 -3 -72 -12 -123 -21 -51 -9 -117 -18 -145 -21 -29 -3
-63 -7 -76 -9 -139 -23 -689 -24 -831 -1 -14 2 -52 7 -85 11 -52 6 -230 35
-304 50 -156 31 -415 109 -576 175 -354 143 -769 395 -1015 617 l-25 23 2635
2635 c1449 1449 2637 2635 2640 2634 3 0 42 -46 88 -104z"/>
</g>
</svg>
